<svg width="465" height="90" viewBox="0 0 465 90" fill="none" xmlns="http://www.w3.org/2000/svg">
<path fill-rule="evenodd" clip-rule="evenodd" d="M65.6 35.584V53.888C65.6 64.9813 62.8267 73.728 57.28 80.128C51.7333 86.4427 43.6267 89.6 32.96 89.6C22.208 89.6 14.0587 86.4427 8.51201 80.128C3.05067 73.728 0.320007 64.9813 0.320007 53.888V35.584C0.320007 24.4907 3.05067 15.7867 8.51201 9.472C14.0587 3.15733 22.208 0 32.96 0C43.6267 0 51.7333 3.15733 57.28 9.472C62.8267 15.7867 65.6 24.4907 65.6 35.584ZM49.856 35.584C49.856 28.5867 48.4907 23.3387 45.76 19.84C43.0293 16.256 38.7627 14.464 32.96 14.464C27.1573 14.464 22.8907 16.256 20.16 19.84C17.4293 23.3387 16.064 28.5867 16.064 35.584V53.888C16.064 60.8853 17.4293 66.176 20.16 69.76C22.8907 73.344 27.1573 75.136 32.96 75.136C38.7627 75.136 43.0293 73.344 45.76 69.76C48.4907 66.176 49.856 60.8853 49.856 53.888V35.584ZM97.683 53.888C97.683 60.1173 99.0483 65.2373 101.779 69.248C104.51 73.1733 108.99 75.136 115.219 75.136C117.779 75.136 120.424 74.7947 123.155 74.112C125.971 73.4293 129.427 72.2773 133.523 70.656L138.259 83.968C133.651 86.016 129.384 87.4667 125.459 88.32C121.619 89.1733 117.907 89.6 114.323 89.6C107.155 89.6 101.139 88.064 96.275 84.992C91.4963 81.92 87.9123 77.696 85.523 72.32C83.1337 66.944 81.939 60.8 81.939 53.888V35.584C81.939 28.672 83.1337 22.528 85.523 17.152C87.9123 11.776 91.4963 7.59467 96.275 4.608C101.139 1.536 107.155 0 114.323 0C117.822 0 121.448 0.426669 125.203 1.28001C128.958 2.04801 133.054 3.41334 137.491 5.37601L132.755 18.944C128.83 17.3227 125.544 16.1707 122.899 15.488C120.254 14.8053 117.694 14.464 115.219 14.464C108.99 14.464 104.51 16.4267 101.779 20.352C99.0483 24.2773 97.683 29.3547 97.683 35.584V53.888ZM204.714 88.32V73.6H169.642V51.584H199.594V36.864H169.642V16H203.434V1.28001H154.282V88.32H204.714ZM269.243 88.32L263.867 71.296H234.043L228.667 88.32H213.435L242.491 1.28001H256.059L285.243 88.32H269.243ZM242.363 44.672L238.395 57.216H259.387L255.419 44.672L249.019 22.656L242.363 44.672ZM299.782 1.28001V88.32H314.502V55.04L313.478 25.088C320.049 34.7307 326.235 45.0133 332.038 55.936C337.926 66.7733 343.601 77.568 349.062 88.32H360.133C360.299 88.353 360.471 88.3704 360.646 88.3704H451.021C452.486 88.3704 453.667 87.189 453.667 85.7005V80.3843C453.691 78.9194 452.509 77.7381 451.021 77.7381H411.327L422.125 48.0858L412.13 44.4472L400.033 77.7381H360.646C360.59 77.7381 360.535 77.7398 360.48 77.7432L356 70.8201L349.574 59.264C344.625 48.9387 339.121 38.912 333.062 29.184C327.003 19.3707 320.603 10.0693 313.862 1.28001H299.782ZM394.126 32.2318L377.162 26.0651C375.484 25.4508 374.823 23.3479 375.933 21.9539C385.857 9.52595 401.285 2.57951 417.21 3.38284C408.444 8.25007 399.962 18.6934 394.126 32.2318ZM438.758 48.4874L399.135 34.0511C406.531 17.1103 418.202 5.62744 427.842 5.62744C429.166 5.62744 430.441 5.84008 431.67 6.289C441.853 9.99849 444.689 28.3333 438.758 48.4874ZM446.839 22.521C446.437 19.095 445.681 16.0707 444.641 13.3536C457.353 22.9935 464.701 38.2332 464.347 54.1107C464.299 55.9064 462.433 57.0878 460.755 56.4735L443.696 50.2595C446.603 40.5014 447.784 30.8142 446.839 22.521Z" fill="#DAECF8"/>
</svg>
