<svg width="466" height="153" viewBox="0 0 466 153" fill="none" xmlns="http://www.w3.org/2000/svg">
<path fill-rule="evenodd" clip-rule="evenodd" d="M66.6 35.584V53.888C66.6 64.9813 63.8267 73.728 58.28 80.128C52.7333 86.4427 44.6267 89.6 33.96 89.6C23.208 89.6 15.0587 86.4427 9.51201 80.128C4.05067 73.728 1.32001 64.9813 1.32001 53.888V35.584C1.32001 24.4907 4.05067 15.7867 9.51201 9.472C15.0587 3.15733 23.208 0 33.96 0C44.6267 0 52.7333 3.15733 58.28 9.472C63.8267 15.7867 66.6 24.4907 66.6 35.584ZM50.856 35.584C50.856 28.5867 49.4907 23.3387 46.76 19.84C44.0293 16.256 39.7627 14.464 33.96 14.464C28.1573 14.464 23.8907 16.256 21.16 19.84C18.4293 23.3387 17.064 28.5867 17.064 35.584V53.888C17.064 60.8853 18.4293 66.176 21.16 69.76C23.8907 73.344 28.1573 75.136 33.96 75.136C39.7627 75.136 44.0293 73.344 46.76 69.76C49.4907 66.176 50.856 60.8853 50.856 53.888V35.584ZM98.683 53.888C98.683 60.1173 100.048 65.2373 102.779 69.248C105.51 73.1733 109.99 75.136 116.219 75.136C118.779 75.136 121.424 74.7947 124.155 74.112C126.971 73.4293 130.427 72.2773 134.523 70.656L139.259 83.968C134.651 86.016 130.384 87.4667 126.459 88.32C122.619 89.1733 118.907 89.6 115.323 89.6C108.155 89.6 102.139 88.064 97.275 84.992C92.4963 81.92 88.9123 77.696 86.523 72.32C84.1337 66.944 82.939 60.8 82.939 53.888V35.584C82.939 28.672 84.1337 22.528 86.523 17.152C88.9123 11.776 92.4963 7.59467 97.275 4.608C102.139 1.536 108.155 0 115.323 0C118.822 0 122.448 0.426669 126.203 1.28001C129.958 2.04801 134.054 3.41334 138.491 5.37601L133.755 18.944C129.83 17.3227 126.544 16.1707 123.899 15.488C121.254 14.8053 118.694 14.464 116.219 14.464C109.99 14.464 105.51 16.4267 102.779 20.352C100.048 24.2773 98.683 29.3547 98.683 35.584V53.888ZM205.714 88.32V73.6H170.642V51.584H200.594V36.864H170.642V16H204.434V1.28001H155.282V88.32H205.714ZM270.243 88.32L264.867 71.296H235.043L229.667 88.32H214.435L243.491 1.28001H257.059L286.243 88.32H270.243ZM243.363 44.672L239.395 57.216H260.387L256.419 44.672L250.019 22.656L243.363 44.672ZM300.782 1.28001V88.32H315.502V55.04L314.478 25.088C321.049 34.7307 327.235 45.0133 333.038 55.936C338.926 66.7733 344.601 77.568 350.062 88.32H361.133C361.299 88.353 361.471 88.3704 361.646 88.3704H452.021C453.486 88.3704 454.667 87.189 454.667 85.7005V80.3843C454.691 78.9194 453.509 77.7381 452.021 77.7381H412.327L423.125 48.0858L413.13 44.4472L401.033 77.7381H361.646C361.59 77.7381 361.535 77.7398 361.48 77.7432L357 70.8201L350.574 59.264C345.625 48.9387 340.121 38.912 334.062 29.184C328.003 19.3707 321.603 10.0693 314.862 1.28001H300.782ZM395.126 32.2318L378.162 26.0651C376.484 25.4508 375.823 23.3479 376.933 21.9539C386.857 9.52595 402.285 2.57951 418.21 3.38284C409.444 8.25007 400.962 18.6934 395.126 32.2318ZM439.758 48.4874L400.135 34.0511C407.531 17.1103 419.202 5.62744 428.842 5.62744C430.166 5.62744 431.441 5.84008 432.67 6.289C442.853 9.99849 445.689 28.3333 439.758 48.4874ZM447.839 22.521C447.437 19.095 446.681 16.0707 445.641 13.3536C458.353 22.9935 465.701 38.2332 465.347 54.1107C465.299 55.9064 463.433 57.0878 461.755 56.4735L444.696 50.2595C447.603 40.5014 448.784 30.8142 447.839 22.521Z" fill="#DAECF8"/>
<path d="M6.784 138.32V94.8001H12.608C16.4907 100.347 20.0533 105.936 23.296 111.568C26.5813 117.157 29.6533 123.003 32.512 129.104L31.872 112.464V94.8001H37.312V138.32H31.488C28.5013 132.091 25.408 126.032 22.208 120.144C19.0507 114.213 15.5947 108.432 11.84 102.8L12.224 120.528V138.32H6.784ZM72.9875 138.64C71.0248 138.64 69.4462 138.192 68.2515 137.296C67.0995 136.4 66.2888 135.291 65.8195 133.968C63.7288 135.803 61.8302 137.104 60.1235 137.872C58.4168 138.597 56.7102 138.96 55.0035 138.96C52.2302 138.96 50.1822 138.064 48.8595 136.272C47.5368 134.48 46.8755 132.283 46.8755 129.68C46.8755 127.931 47.1955 126.373 47.8355 125.008C48.4755 123.643 49.5635 122.576 51.0995 121.808C52.6355 120.997 54.7048 120.592 57.3075 120.592C58.4595 120.592 59.7182 120.677 61.0835 120.848C62.4488 120.976 63.8355 121.147 65.2435 121.36V117.072C65.2435 114.683 64.7102 113.061 63.6435 112.208C62.6195 111.312 61.1048 110.864 59.0995 110.864C56.3688 110.864 53.3182 111.611 49.9475 113.104L48.2835 108.752C50.2462 107.856 52.1235 107.173 53.9155 106.704C55.7075 106.235 57.5208 106 59.3555 106C62.3422 106 64.6248 106.491 66.2035 107.472C67.7822 108.453 68.8702 109.755 69.4675 111.376C70.0648 112.997 70.3635 114.768 70.3635 116.688V130.384C70.3635 131.365 70.5555 132.197 70.9395 132.88C71.3235 133.52 72.0915 133.84 73.2435 133.84H73.9475V138.64H72.9875ZM52.0595 129.616C52.0595 131.067 52.4008 132.24 53.0835 133.136C53.7662 134.032 54.7475 134.48 56.0275 134.48C57.1368 134.48 58.4168 134.16 59.8675 133.52C61.3182 132.837 63.1102 131.493 65.2435 129.488V125.456C62.3422 124.987 59.7822 124.752 57.5635 124.752C55.6008 124.752 54.1928 125.157 53.3395 125.968C52.4862 126.779 52.0595 127.995 52.0595 129.616ZM100.902 138.32V133.84C98.6833 135.76 96.6993 137.104 94.95 137.872C93.2007 138.597 91.4513 138.96 89.702 138.96C86.886 138.96 84.7313 138.043 83.238 136.208C81.7447 134.331 80.998 131.707 80.998 128.336V106.64H86.246V127.568C86.246 129.787 86.63 131.429 87.398 132.496C88.2087 133.52 89.4033 134.032 90.982 134.032C92.1767 134.032 93.5207 133.733 95.014 133.136C96.5073 132.539 98.3633 131.344 100.582 129.552V106.64H105.83V138.32H100.902ZM133.772 111.248C131.852 111.248 129.975 111.589 128.14 112.272C126.348 112.955 124.428 114.256 122.38 116.176V138.32H117.132V106.64H122.124V111.76C124.3 109.627 126.284 108.133 128.076 107.28C129.911 106.427 131.809 106 133.772 106V111.248ZM160.152 138.32V133.84C157.933 135.76 155.949 137.104 154.2 137.872C152.451 138.597 150.701 138.96 148.952 138.96C146.136 138.96 143.981 138.043 142.488 136.208C140.995 134.331 140.248 131.707 140.248 128.336V106.64H145.496V127.568C145.496 129.787 145.88 131.429 146.648 132.496C147.459 133.52 148.653 134.032 150.232 134.032C151.427 134.032 152.771 133.733 154.264 133.136C155.757 132.539 157.613 131.344 159.832 129.552V106.64H165.08V138.32H160.152Z" fill="#DAECF8"/>
</svg>
