<svg width="107" height="86" viewBox="0 0 107 86" fill="none" xmlns="http://www.w3.org/2000/svg">
<path d="M19.1618 22.745L36.1262 28.9117C41.9621 15.3733 50.4444 4.93 59.2101 0.0627734C43.2853 -0.740556 27.8566 6.20588 17.9331 18.6339C16.8227 20.0279 17.4842 22.1307 19.1618 22.745ZM41.1352 30.7311L80.7582 45.1674C86.6887 25.0132 83.8534 6.67843 73.67 2.96893C72.4414 2.52002 71.1655 2.30737 69.8424 2.30737C60.2025 2.30737 48.5305 13.7903 41.1352 30.7311ZM86.6414 10.0335C87.681 12.7507 88.4371 15.775 88.8388 19.2009C89.7839 27.4941 88.6025 37.1813 85.6963 46.9394L102.755 53.1534C104.433 53.7677 106.299 52.5863 106.347 50.7907C106.701 34.9131 99.3529 19.6735 86.6414 10.0335ZM93.0208 74.418H53.3269L64.1246 44.7657L54.1302 41.1271L42.033 74.418H2.64626C1.18137 74.418 0 75.5994 0 77.0643V82.3804C0 83.8453 1.18137 85.0503 2.64626 85.0503H93.0208C94.4857 85.0503 95.6671 83.8689 95.6671 82.3804V77.0643C95.6907 75.5994 94.5093 74.418 93.0208 74.418Z" fill="#5A5A57"/>
</svg>
